<svg display="block" role="presentation" viewBox="0 0 3115 2537" xmlns="http://www.w3.org/2000/svg"><path d="M 1480.21 2294.372 C 1395.203 2288.498 1309.158 2288.525 1225.518 2274.48 C 1175.678 2266.119 1136.74 2275.273 1093.567 2295.684 C 921.887 2376.811 748.021 2452.828 564.536 2504.334 C 479.393 2528.216 392.255 2534.829 304.707 2536.195 C 251.097 2537.014 201.203 2519.417 157.948 2487.912 C 50.262 2409.545 -5.808 2305.384 0.476 2169.581 C 4.575 2080.722 26.626 1997.054 61.984 1916.037 C 146.444 1722.524 264.268 1550.133 398.02 1388.29 C 422.831 1358.233 456.468 1335.089 487.7 1310.961 C 498.438 1302.682 501.28 1294.512 501.963 1282.735 C 514.095 1072.664 584.155 880.709 687.278 699.848 C 765.918 561.941 874.424 449.637 1007.112 364.548 C 1135.21 282.465 1278.828 237.27 1431.217 227.979 C 1567.812 219.618 1704.79 223.17 1837.342 261.588 C 1904.751 281.153 1969.647 309.735 2034.98 335.939 C 2054.189 343.617 2065.994 342.552 2082.853 328.37 C 2231.963 202.759 2397.932 104.855 2580.078 35.532 C 2680.359 -2.613 2783.662 -15.264 2886.813 23.783 C 3018.954 73.841 3094.944 167.811 3107.158 311.73 C 3118.498 444.855 3073.111 562.487 3012.232 675.775 C 2902.688 879.698 2763.224 1061.406 2597.894 1223.25 C 2579.477 1241.256 2572.673 1260.083 2571.525 1285.877 C 2559.339 1557.156 2457.035 1787.748 2259.452 1975.823 C 2142.257 2087.389 2005.033 2166.357 1857.808 2229.477 C 1737.416 2281.12 1610.001 2293.525 1480.21 2294.372 Z M 2239.204 455.566 C 2252.976 465.867 2271.775 465.539 2285.519 455.183 C 2323.828 426.356 2364.487 404.524 2410.201 392.556 C 2535.43 359.766 2634.536 453.271 2609.889 580.549 C 2597.538 644.379 2568.711 700.613 2531.249 752.939 C 2450.642 865.571 2354.514 964.021 2250.708 1054.903 C 2028.122 1249.809 1793.103 1429.441 1559.779 1611.122 C 1360.938 1765.97 1136.139 1876.389 912.077 1987.545 C 834.558 2025.963 750.917 2048.752 663.561 2056.212 C 495.46 2070.53 383.566 1945.137 420.071 1780.753 C 435.619 1710.61 469.802 1648.693 515.216 1594.017 C 532.867 1572.785 535.9 1555.052 528.85 1529.749 C 521.473 1503.217 516.199 1476.166 510.871 1448.978 C 507.619 1432.337 486.033 1427.009 475.814 1440.562 C 475.759 1440.644 475.704 1440.726 475.622 1440.808 C 373.92 1578.004 276.235 1717.824 199.618 1871.033 C 161.473 1947.405 126.716 2025.007 110.758 2109.904 C 90.32 2218.656 105.157 2315.658 194.016 2392.222 C 228.336 2421.841 266.618 2441.269 311.648 2437.662 C 378.292 2432.334 445.647 2427.334 510.898 2413.617 C 667.741 2380.554 810.184 2306.45 955.66 2243.412 C 1231.146 2124.031 1482.15 1960.029 1727.36 1788.786 C 2009.978 1591.503 2289.345 1389.301 2529.855 1139.527 C 2634.836 1030.502 2740.49 922.106 2831.07 800.375 C 2841.645 786.166 2850.99 771.137 2859.215 755.426 C 2879.49 716.789 2898.863 677.66 2918.564 638.723 C 2959.824 557.159 2995.783 473.382 3004.281 381.407 C 3013.435 282.52 2989.881 195.682 2899.573 138.928 C 2861.1 114.746 2816.643 101.357 2771.23 99.417 C 2702.355 96.493 2637.924 114.801 2575.761 141.798 C 2470.069 187.648 2370.253 244.319 2276.174 310.773 C 2250.954 328.589 2226.444 347.388 2201.469 366.597 C 2181.44 381.981 2181.577 412.284 2201.824 427.449 C 2214.393 436.931 2226.717 446.166 2239.204 455.566 Z M 818.054 1879.203 C 834.284 1894.669 858.357 1898.576 878.605 1888.958 C 894.453 1881.471 910.766 1873.902 927.488 1867.399 C 953.174 1857.371 964.95 1840.429 972.437 1813.651 C 1023.644 1630.604 1127.696 1487.423 1293.146 1389.574 C 1433.731 1306.426 1583.688 1299.212 1738.645 1328.258 C 1759.057 1332.111 1776.463 1329.16 1789.633 1318.694 C 1823.188 1292.162 1855.649 1264.318 1887.892 1236.557 C 1906.801 1220.271 1904.396 1190.46 1883.247 1177.208 C 1760.095 1100.07 1675.936 1013.807 1641.725 878.386 C 1612.023 760.754 1600.137 641.1 1600.247 520.134 C 1600.301 474.174 1601.476 428.187 1602.569 381.052 C 1603.17 355.23 1582.404 333.917 1556.555 333.917 L 1474.198 333.917 C 1446.983 333.917 1425.697 357.389 1428.375 384.468 C 1432.61 427.067 1436.791 468.463 1439.906 509.997 C 1450.235 647.002 1437.283 782.586 1412.417 917.296 C 1379.628 1094.906 1283.227 1233.032 1144.446 1343.505 C 1117.285 1365.146 1085.097 1382.415 1052.69 1395.203 C 940.386 1439.469 824.857 1473.105 704.465 1487.478 C 692.47 1488.926 680.392 1490.074 667.741 1491.14 C 644.242 1493.189 628.448 1516.387 635.28 1538.958 C 673.753 1665.826 719.631 1785.343 818.054 1879.203 Z M 1289.348 356.788 C 1209.779 379.549 1132.477 404.114 1062.772 448.434 C 1053.591 454.254 1050.422 466.195 1055.613 475.759 L 1055.668 475.896 C 1130.237 612.764 1108.459 769.033 995.253 875.845 C 915.575 951.07 819.857 986.701 711.925 994.188 C 682.496 996.21 657.522 1016.703 648.969 1044.93 C 619.759 1141.576 601.944 1241.338 604.867 1346.237 C 605.687 1376.076 631.482 1398.837 661.156 1395.777 C 673.452 1394.493 685.584 1393.044 697.58 1391.05 C 798.763 1374.218 896.967 1345.445 993.177 1310.524 C 1024.928 1298.993 1057.389 1284.894 1084.086 1264.756 C 1189.531 1185.35 1267.488 1084.113 1300.551 954.84 C 1348.451 767.558 1351.484 577.68 1328.149 382.691 C 1325.881 363.919 1307.491 351.569 1289.348 356.788 Z M 2045.883 1100.836 C 2081.104 1069.822 2115.97 1039.137 2150.372 1008.888 C 2165.619 995.445 2166.138 972.028 2151.793 957.655 C 2022.302 827.809 2010.415 677.742 2063.234 512.674 C 2070.639 489.449 2059.627 464.365 2037.521 454.2 C 1947.678 412.967 1857.944 371.926 1760.013 351.924 C 1751.515 350.175 1742.935 348.891 1734.11 347.716 C 1713.725 345.038 1695.391 361.242 1696.101 381.762 C 1696.101 381.899 1696.128 382.008 1696.128 382.118 C 1699.626 472.972 1699.735 564.154 1708.534 654.489 C 1715.802 728.784 1730.612 802.725 1747.553 875.545 C 1762.992 942.08 1798.322 998.068 1851.742 1043.481 C 1888.739 1074.932 1931.338 1093.977 1976.697 1112.503 C 2000.059 1122.067 2026.92 1117.531 2045.883 1100.836 Z M 1955.001 1763.128 C 1761.461 1890.898 1571.064 2016.563 1377.633 2144.224 C 1360.829 2155.318 1368.589 2181.495 1388.727 2181.631 C 1450.016 2181.959 1509.256 2182.424 1568.441 2181.003 C 1676.673 2178.352 1781.108 2155.482 1875.541 2101.652 C 1910.954 2081.459 1948.662 2053.588 1968.117 2019.433 C 2011.044 1944.099 2011.536 1862.781 1996.07 1780.397 C 1992.573 1761.653 1970.931 1752.663 1955.001 1763.128 Z M 2452.172 1413.729 C 2453.893 1395.75 2433.29 1384.383 2419.109 1395.64 C 2347.081 1452.885 2175.756 1590.437 2080.64 1667.083 C 2068.972 1676.537 2067.005 1684.734 2071.103 1699.052 C 2080.804 1732.716 2089.602 1766.817 2095.887 1801.273 C 2103.428 1842.834 2102.718 1884.449 2097.827 1926.447 C 2095.695 1944.809 2116.599 1956.75 2131.463 1945.82 C 2278.196 1838.216 2436.788 1573.96 2452.172 1413.729 Z M 1575.736 1416.926 C 1354.134 1418.893 1166.469 1583.879 1103.377 1738.263 C 1097.311 1753.1 1113.104 1767.418 1127.395 1760.177 C 1292.135 1676.373 1444.36 1573.906 1589.18 1454.716 C 1604.591 1442.037 1595.629 1416.762 1575.736 1416.926 Z M 2359.459 751.327 C 2309.264 677.933 2254.369 612.464 2190.102 554.7 C 2172.86 539.207 2145.098 546.775 2138.923 569.127 C 2107.636 682.387 2139.059 812.261 2215.787 889.07 C 2232.865 906.203 2260.626 906.093 2277.349 888.633 C 2302.925 861.882 2328.692 834.913 2354.787 807.616 C 2369.406 792.314 2371.4 768.842 2359.459 751.327 Z M 716.379 867.812 C 709.329 883.769 723.811 900.956 740.78 896.721 C 797.314 882.594 847.974 864.232 893.06 832.754 C 916.859 816.141 938.254 794.199 955.851 770.946 C 995.964 717.882 1017.304 637.056 986.318 560.082 C 978.667 541.065 954.431 535.026 939.156 548.715 C 841.498 636.373 771.301 743.485 716.379 867.812 Z M 703.919 1946.94 C 721.571 1943.197 729.495 1922.458 718.62 1907.976 C 694.191 1875.432 670.392 1844.255 649.324 1811.329 C 631.727 1783.84 616.043 1755.122 599.676 1724.819 C 588.035 1703.315 556.776 1704.599 546.912 1727.005 C 538.223 1746.733 530.107 1766.27 523.659 1786.327 C 516.281 1809.361 515.434 1835.675 517.019 1860.158 C 519.806 1903.385 545.983 1930.983 586.095 1944.317 C 625.579 1957.46 664.435 1955.384 703.919 1946.94 Z M 2421.924 667.55 C 2432.963 682.66 2455.642 681.841 2465.862 666.156 C 2490.344 628.476 2509.062 589.456 2510.237 543.141 C 2511.22 503.931 2488.022 483.464 2449.631 489.449 C 2414.792 494.913 2383.259 508.439 2354.241 527.102 C 2341.371 535.354 2338.174 552.787 2347.191 565.192 C 2372.166 599.403 2396.758 633.066 2421.924 667.55 Z" fill="var(--token-4ed9c8f7-909d-4f78-b4da-8aec62cc2857, rgb(29, 182, 206))" height="2536.222165065713px" id="RGMwL0xyD" transform="translate(0 0.41)" width="3108.9015784344365px"/></svg>